# xmcd CD database file
#
# Track frame offsets:
#	150
#	14539
#	34493
#	53524
#	68641
#	83382
#	102148
#	120186
#	137824
#	152552
#	168175
#	185272
#	203812
#	220439
#	238933
#
# Disc length: 3425 seconds
#
# Revision: 1
# Processed by: cddbd v1.5.2PL0 Copyright (c) Steve Scherf et al.
# Submitted via: CDex 1.70beta2
#
DISCID=bf0d5f0f
DTITLE=Edith Marquez - Todo... - Disco 1
DYEAR=2010
DGENRE=New Age
TTITLE0=Extravíate
TTITLE1=Mi Nombre
TTITLE2=Esta Vez
TTITLE3=Juramentos
TTITLE4=Para No Llorar
TTITLE5=Acostúmbrame Al Cielo
TTITLE6=Eso Jamás
TTITLE7=Culpable o No
TTITLE8=Nubes Negras
TTITLE9=Lástima
TTITLE10=Mírame
TTITLE11=Noche De Copas
TTITLE12=Por Hablarle De Ti
TTITLE13=Un Segundo
TTITLE14=Entre Ella Y Yo
EXTD=YEAR: 2010
EXTT0=
EXTT1=
EXTT2=
EXTT3=
EXTT4=
EXTT5=
EXTT6=
EXTT7=
EXTT8=
EXTT9=
EXTT10=
EXTT11=
EXTT12=
EXTT13=
EXTT14=
PLAYORDER=
